<?xml version="1.0" standalone="no"?>
<!DOCTYPE svg PUBLIC "-//W3C//DTD SVG 20010904//EN"
 "http://www.w3.org/TR/2001/REC-SVG-20010904/DTD/svg10.dtd">
<svg version="1.0" xmlns="http://www.w3.org/2000/svg"
 width="678.000000pt" height="678.000000pt" viewBox="0 0 678.000000 678.000000"
 preserveAspectRatio="xMidYMid meet">
<metadata>
Created by potrace 1.14, written by Peter Selinger 2001-2017
</metadata>
<g transform="translate(0.000000,678.000000) scale(0.100000,-0.100000)"
fill="#000000" stroke="none">
<path d="M2741 5805 c-129 -28 -344 -109 -469 -177 -309 -165 -505 -348 -721
-668 -278 -412 -582 -812 -984 -1293 -210 -251 -280 -343 -345 -449 -89 -145
-164 -337 -198 -502 -36 -177 -19 -401 46 -575 94 -256 192 -398 350 -504 91
-62 274 -157 353 -184 51 -18 72 -20 135 -14 24 2 11 20 -48 67 -33 26 -58 49
-56 51 2 3 37 9 77 14 81 12 113 25 147 62 22 23 22 26 5 31 -10 3 -58 8 -108
11 -162 9 -275 57 -380 161 -147 146 -244 403 -243 644 0 84 4 125 22 205 30
137 117 294 317 571 48 66 221 323 385 570 563 851 643 969 726 1076 123 157
230 268 382 396 104 88 329 214 476 267 179 64 297 84 518 89 95 2 126 6 138
18 36 36 -35 86 -178 124 -83 22 -264 27 -347 9z"/>
<path d="M3738 5792 c-46 -2 -61 -7 -73 -25 -19 -27 -19 -67 -1 -93 15 -20 6
-19 265 -25 97 -2 186 -20 280 -58 225 -91 594 -389 804 -651 75 -93 196 -271
247 -365 59 -107 76 -139 120 -220 132 -246 241 -398 661 -915 219 -271 289
-370 344 -487 33 -68 82 -203 91 -248 2 -11 7 -36 10 -55 4 -19 9 -44 11 -55
13 -60 12 -284 -3 -345 -42 -182 -184 -288 -419 -316 -131 -15 -193 -45 -239
-115 -34 -50 -34 -97 -1 -133 23 -25 53 -32 110 -26 47 5 247 76 335 119 359
175 506 390 495 721 -2 63 -6 124 -8 135 -82 340 -197 551 -489 900 -142 168
-128 151 -236 294 -171 227 -269 372 -433 646 -254 423 -453 667 -734 900 -33
28 -62 52 -65 55 -14 16 -196 144 -253 179 -102 62 -174 96 -288 136 -57 20
-106 36 -109 35 -3 -1 -27 2 -55 6 -52 8 -266 11 -367 6z"/>
<path d="M2945 4541 c-151 -42 -208 -91 -372 -320 -52 -72 -160 -244 -199
-316 -6 -11 -40 -72 -76 -135 -36 -63 -79 -140 -95 -170 -115 -205 -150 -258
-209 -305 -20 -16 -42 -35 -48 -40 -24 -23 -165 -106 -230 -135 -90 -41 -258
-97 -321 -106 -27 -5 -53 -9 -57 -10 -5 -1 -15 -2 -23 -3 -25 -2 -17 -19 21
-45 41 -27 38 -31 -31 -40 -111 -15 -145 -37 -126 -85 15 -35 50 -52 99 -47
20 3 62 7 92 10 30 3 82 9 115 13 72 8 114 8 122 -1 4 -4 8 -19 9 -34 6 -83
17 -198 19 -202 2 -3 6 -41 10 -85 4 -44 9 -87 10 -95 1 -8 6 -44 10 -80 18
-163 75 -359 147 -510 187 -392 577 -704 983 -786 11 -2 31 -6 45 -9 14 -3 35
-7 47 -9 12 -3 53 -8 90 -11 37 -4 82 -9 98 -11 51 -6 290 -5 347 2 109 13
293 62 374 99 16 8 59 27 95 43 150 68 370 210 485 314 172 155 267 295 373
551 64 154 124 355 137 455 11 86 46 123 129 137 22 4 57 11 78 16 71 18 40
56 -84 99 -87 31 -102 43 -95 74 11 43 -30 94 -99 125 -22 10 -46 25 -54 35
-13 15 -10 20 19 45 20 16 30 32 26 39 -12 20 -79 50 -157 72 -134 37 -177 81
-289 295 -40 77 -99 187 -130 245 -31 58 -76 141 -100 185 -86 160 -104 191
-159 275 -56 85 -174 212 -244 263 -69 52 -143 79 -215 80 -37 1 -84 -2 -105
-6 -37 -8 -40 -6 -88 47 -29 31 -69 62 -92 72 -59 24 -204 26 -282 5z m245
-176 c36 -25 81 -58 100 -75 49 -43 74 -47 145 -22 112 40 141 28 244 -100 91
-114 169 -249 260 -448 19 -41 79 -167 134 -280 160 -331 177 -368 172 -382
-6 -14 -22 -22 -135 -63 -125 -46 -211 -96 -305 -179 -49 -43 -119 -104 -154
-135 -88 -77 -101 -91 -118 -129 -26 -63 -3 -85 123 -117 93 -24 107 -18 101
41 -3 38 0 51 22 77 56 69 123 135 142 140 17 5 19 -1 19 -56 2 -201 14 -257
72 -340 83 -117 356 -143 454 -43 39 40 144 216 129 216 -2 0 2 17 9 39 8 21
14 75 13 120 0 44 2 83 4 85 8 8 134 -70 137 -85 3 -18 -134 -392 -210 -573
-81 -194 -125 -276 -206 -379 -130 -165 -293 -296 -517 -413 -123 -65 -205
-96 -339 -131 -88 -23 -122 -27 -261 -27 -171 -1 -196 2 -320 34 -303 81 -638
303 -797 530 -38 54 -135 220 -138 235 0 3 -9 25 -20 49 -38 90 -97 289 -161
546 -5 19 -7 103 -5 187 5 203 9 212 134 275 171 87 246 159 364 353 62 100
231 396 298 520 66 121 116 201 191 302 115 156 167 213 227 253 61 41 103 35
192 -25z"/>
<path d="M3678 3140 c-20 -12 -99 -130 -134 -204 -26 -52 -27 -55 -10 -80 29
-45 74 -36 171 34 151 110 166 135 121 195 -43 56 -105 79 -148 55z"/>
<path d="M2513 2783 c-45 -23 -48 -49 -12 -94 44 -56 122 -122 158 -136 29
-11 35 -9 62 15 24 22 29 36 31 75 1 53 1 54 -93 112 -69 43 -104 50 -146 28z"/>
<path d="M1981 2666 c-19 -7 -44 -24 -54 -39 -17 -22 -18 -30 -7 -56 29 -72
263 -209 429 -252 111 -29 342 -25 417 6 64 27 69 35 32 58 -112 70 -449 215
-598 257 -137 39 -174 43 -219 26z"/>
<path d="M3258 1734 c-103 -30 -130 -44 -145 -74 -10 -21 -9 -27 5 -43 9 -11
29 -25 43 -32 23 -12 35 -10 130 31 57 25 112 53 122 63 20 19 15 46 -11 56
-52 21 -70 21 -144 -1z"/>
<path d="M949 2651 c-18 -14 -20 -28 -21 -114 0 -175 -42 -268 -165 -367 -17
-14 -34 -35 -37 -47 -9 -28 35 -58 149 -104 108 -44 162 -81 215 -149 55 -70
73 -82 121 -82 35 1 104 26 113 41 2 3 7 33 11 66 11 95 23 153 41 187 21 41
84 135 113 167 12 13 21 28 21 32 0 19 -110 69 -194 89 -126 30 -152 54 -166
148 -10 69 -31 107 -73 128 -44 23 -103 25 -128 5z m251 -406 l30 -15 -43 -80
c-38 -73 -44 -80 -67 -75 -40 10 -100 54 -100 73 0 24 65 115 87 123 19 7 43
0 93 -26z"/>
</g>
</svg>
